<svg width="60" height="60"  viewBox="0 0 61 55" fill="none" xmlns="http://www.w3.org/2000/svg">
<path d="M56.651 38.2594C54.1224 35.8152 50.6601 32.353 50.6601 28.8203V17.5726C50.6601 7.88372 41.5447 0 29.8944 0C18.2418 0 9.198 7.88372 9.198 17.5726V28.8203C9.198 32.2928 5.44093 35.5741 3.05973 38.1216C0.916855 40.409 -0.775341 42.2176 0.368679 44.0245C1.37186 45.6143 3.88741 45.8175 5.96528 45.8175H18.3805C18.3848 50.8885 23.5568 55 29.9355 55C36.3143 55 41.4906 50.8902 41.4927 45.8175H54.1983C55.52 45.8175 58.6097 45.8175 59.6735 44.0296C60.7461 42.221 59.03 40.5589 56.651 38.2594ZM29.9334 51.3914C26.0593 51.3914 22.9154 48.8973 22.9111 45.8193H36.9557C36.9492 48.8973 33.8096 51.3914 29.9334 51.3914ZM54.1983 42.1504H5.96311C5.6316 42.1504 5.35427 42.1418 5.12676 42.1297C5.5731 41.5803 6.22745 40.8775 6.76262 40.3074C9.40167 37.4877 13.8152 33.5054 13.8152 28.8203V17.5726C13.8152 9.90417 20.792 3.66713 29.8987 3.66713C39.0054 3.66713 46.0515 9.90589 46.0515 17.5726V28.8203C46.0515 33.6656 50.1205 37.7151 53.0911 40.5881C53.5916 41.0722 54.1896 41.6509 54.6555 42.147C54.5168 42.1504 54.3651 42.1521 54.2026 42.1521L54.1983 42.1504Z" fill="#182825"/>
</svg>
