<svg width="105" height="39" viewBox="0 0 105 39" fill="none" xmlns="http://www.w3.org/2000/svg">
<path d="M30.8087 38.2904H19.3112V23.8579H11.8475V38.2904H0.04375L0 1.09035H11.8475V14.9308H19.3112V1.09035H30.8087V38.2904ZM83.4969 38.4673C95.3531 38.4596 105 29.8055 105 19.3828C105.017 16.8962 104.473 14.4312 103.399 12.1307C102.325 9.8301 100.742 7.73967 98.742 5.98042C96.7421 4.22118 94.3648 2.82807 91.748 1.88176C89.1311 0.935461 86.3266 0.454773 83.4969 0.467533C71.6537 0.459844 65.6031 8.12207 64.1069 11.2131C64.12 6.57271 58.9137 1.0942 52.8194 1.08651H33.2062V38.2789L51.4981 38.2827C58.8744 38.2827 64.1244 32.6697 64.1331 27.8524C65.8175 30.8819 71.6581 38.4711 83.5012 38.4634L83.4969 38.4673ZM49.9625 23.335C51.6556 23.335 52.99 24.8037 52.99 26.4761C52.99 28.1485 51.6556 29.6171 49.9625 29.6171H44.1437V23.335H49.9625ZM49.9844 9.36772C51.6775 9.36772 53.0119 10.8363 53.0119 12.5087C53.0119 14.185 51.6775 15.6536 49.9844 15.6536H44.1656V9.36772H49.9844ZM57.7281 19.3905C59.0625 19.2406 61.285 17.9027 62.0681 17.0453C61.7925 18.1064 61.7706 21.1744 62.0944 22.2355C61.2019 21.0283 59.0844 19.5405 57.7281 19.3905ZM72.7344 19.3905C72.7344 18.1475 73.013 16.9167 73.5543 15.7683C74.0956 14.6199 74.889 13.5765 75.8892 12.6975C76.8894 11.8186 78.0768 11.1214 79.3836 10.6457C80.6905 10.17 82.0911 9.92518 83.5056 9.92518C84.9201 9.92518 86.3208 10.17 87.6276 10.6457C88.9344 11.1214 90.1218 11.8186 91.122 12.6975C92.1222 13.5765 92.9156 14.6199 93.4569 15.7683C93.9982 16.9167 94.2769 18.1475 94.2769 19.3905C94.2769 21.9014 93.1418 24.3094 91.1214 26.0849C89.101 27.8603 86.3607 28.8578 83.5034 28.8578C80.6461 28.8578 77.9059 27.8603 75.8854 26.0849C73.865 24.3094 72.7344 21.9014 72.7344 19.3905ZM83.5056 26.8336C85.752 26.8336 87.9064 26.0494 89.4948 24.6536C91.0832 23.2577 91.9756 21.3645 91.9756 19.3905C91.9756 17.4165 91.0832 15.5233 89.4948 14.1275C87.9064 12.7316 85.752 11.9474 83.5056 11.9474C81.2592 11.9474 79.1048 12.7316 77.5164 14.1275C75.928 15.5233 75.0356 17.4165 75.0356 19.3905C75.0356 21.3645 75.928 23.2577 77.5164 24.6536C79.1048 26.0494 81.2592 26.8336 83.5056 26.8336Z" fill="#991eeb"/>
</svg>
