<svg width="105" height="93" viewBox="0 0 105 93" fill="none" xmlns="http://www.w3.org/2000/svg">
<g clip-path="url(#clip0_21_175)">
<path d="M24.0625 0L44.8481 51.7529V51.726L46.4931 55.8011C55.6281 78.5175 60.5412 90.6964 60.5675 90.7233C60.5937 90.7503 61.9675 90.8002 63.63 90.8771C68.6875 91.0693 74.9612 91.5691 79.7169 92.0689C80.2506 92.1458 80.8631 92.188 81.4844 92.188C81.6025 92.188 81.7162 92.188 81.8344 92.1842H81.8169L61.2062 40.8157L59.2987 36.0871L48.6981 9.74933C46.6856 4.75164 44.9794 0.49208 44.8919 0.330616L44.765 0.00384437H24.0887L24.0625 0Z" fill="#E50914"/>
<path d="M61.2981 0.0461325L61.2544 20.4482L61.2194 40.8503L59.3075 36.114L56.8269 81.5161C59.255 87.5402 60.5544 90.7426 60.5675 90.7695C60.5806 90.7964 61.9675 90.8617 63.63 90.9309C68.6919 91.1231 74.9612 91.6229 79.7344 92.1227C80.2681 92.1996 80.8806 92.2419 81.5062 92.2419C81.6244 92.2419 81.7381 92.2419 81.8519 92.238H81.8344C81.8912 92.1996 81.9219 71.3977 81.9087 46.0594L81.865 0.0384437H61.2981V0.0461325ZM24.0625 0V46.1017C24.0625 71.4553 24.0931 92.2226 24.1281 92.2419C24.1631 92.2611 25.9481 92.1265 28.0962 91.9112C30.2444 91.696 33.215 91.4115 34.7025 91.2961C36.9687 91.1039 43.75 90.7195 44.5375 90.7195C44.765 90.7195 44.7825 89.6815 44.8131 71.1862L44.8481 51.653L46.5106 55.728L47.0794 57.1735L49.5731 11.8022L48.7419 9.70319L44.7606 0H24.0581L24.0625 0Z" fill="#E50914"/>
</g>
<defs>
<clipPath id="clip0_21_175">
<rect width="105" height="92.2649" fill="white"/>
</clipPath>
</defs>
</svg>
