<svg width="90" height="85" viewBox="0 0 90 85" fill="none" xmlns="http://www.w3.org/2000/svg">
<path d="M74.9998 0H15C6.74999 0 0 6.37499 0 14.1667V70.8333C0 78.625 6.74999 85 15 85H75C83.25 85 90 78.625 90 70.8333V14.1667C89.9998 6.37499 83.2498 0 74.9998 0ZM43.1205 43.2524C39.9967 46.2026 35.0873 47.5881 29.5407 47.5881C28.0743 47.5881 26.7356 47.5274 25.7153 47.3467V62.6409H17.9378V22.5995C20.7429 22.1179 24.6321 21.7563 29.9231 21.7563C35.6616 21.7563 39.8694 22.9004 42.611 25.0683C45.1612 27.0556 46.8186 30.2466 46.8186 34.04C46.8184 37.8938 45.5434 41.0847 43.1205 43.2524ZM59.4388 63.2435C55.6771 63.2435 52.2984 62.4004 50.0031 61.1959L51.5331 55.8371C53.3181 56.8607 56.6974 57.9448 59.5026 57.9448C62.9449 57.9448 64.4756 56.62 64.4756 54.693C64.4756 52.7064 63.2007 51.6824 59.375 50.418C53.3179 48.4308 50.7685 45.2999 50.8321 41.8677C50.8321 36.6893 55.3585 32.6552 62.5627 32.6552C66.0058 32.6552 69.0022 33.4984 70.7869 34.4011L69.2569 39.6397C67.918 38.9174 65.4313 37.9538 62.6901 37.9538C59.8848 37.9538 58.3548 39.2184 58.3548 41.0245C58.3548 42.8915 59.8212 43.7949 63.7741 45.1194C69.3844 47.046 71.9984 49.7555 72.0622 54.0913C72.062 59.3899 67.6633 63.2435 59.4388 63.2435ZM38.9764 34.3409C38.9764 39.0979 35.4059 41.8074 29.5407 41.8074C27.947 41.8074 26.6718 41.7472 25.7153 41.5065V27.7778C26.5445 27.5973 28.0745 27.4167 30.2424 27.4167C35.6616 27.4167 38.9764 29.8253 38.9764 34.3409Z" fill="#001E36"/>
</svg>
