 <svg width="60" height="60" viewBox="0 0 61 55" fill="none" xmlns="http://www.w3.org/2000/svg">
<path fill-rule="evenodd" clip-rule="evenodd" d="M42.0071 15C42.0071 9.48496 36.9786 4.99996 30.7953 4.99996C24.612 4.99996 19.5835 9.48496 19.5835 15C19.5835 20.515 24.612 25 30.7953 25C36.9786 25 42.0071 20.515 42.0071 15ZM52.6135 50H47.613C46.0658 50 44.8101 48.88 44.8101 47.5C44.8101 46.12 46.0658 45 47.613 45H48.8155C50.7551 45 52.1874 43.2574 51.4531 41.6549C48.0587 34.2449 40.0871 30 30.7953 30C21.5035 30 13.5319 34.2449 10.1376 41.6549C9.40319 43.2574 10.8355 45 12.7751 45H13.9776C15.5248 45 16.7806 46.12 16.7806 47.5C16.7806 48.88 15.5248 50 13.9776 50H8.97714C5.47345 50 2.71536 47.1424 3.45814 44.0899C5.49869 35.6924 11.8698 29.4949 20.2618 26.6824C16.433 23.9349 13.9776 19.725 13.9776 15C13.9776 6.12246 22.6219 -0.952558 32.8106 0.104942C40.1936 0.869942 46.3096 6.11733 47.4168 12.6748C48.3698 18.3273 45.7771 23.4899 41.3288 26.6824C49.7208 29.4949 56.0919 35.6924 58.1325 44.0899C58.8753 47.1424 56.1172 50 52.6135 50ZM39.2042 47.5C39.2042 48.88 37.9484 50 36.4012 50H34.1701C34.1701 52.5 34.4616 55 31.3671 55C29.8171 55 28.5642 53.88 28.5642 52.5V50H25.1894C23.6422 50 22.3865 48.88 22.3865 47.5C22.3865 46.12 23.6422 45 25.1894 45H28.5642V42.5C28.5642 41.12 29.8171 40 31.3671 40C32.9143 40 34.1701 41.12 34.1701 42.5V45H36.4012C37.9484 45 39.2042 46.12 39.2042 47.5Z" fill="#182825"/>
</svg>
