<svg width="40" height="40" viewBox="0 0 60 80" fill="none" xmlns="http://www.w3.org/2000/svg">
<path d="M70 20.6667C70.0015 19.8105 69.7513 18.9693 69.2749 18.2284C68.7985 17.4876 68.113 16.8737 67.2878 16.4491L37.8043 0.682117C36.9546 0.235393 35.9884 0 35.0047 0C34.0209 0 33.0548 0.235393 32.205 0.682117L2.67772 16.4491C1.86177 16.8853 1.18584 17.5054 0.716355 18.2484C0.246873 18.9913 0 19.8315 0 20.6864C0 21.5414 0.246873 22.3816 0.716355 23.1245C1.18584 23.8675 1.86177 24.4875 2.67772 24.9238L11.0766 29.3386V40.4149C11.0817 41.2805 11.3338 42.1304 11.8088 42.8829C12.2838 43.6353 12.9656 44.265 13.7887 44.7114L32.38 54.3686C33.2101 54.7827 34.1433 55 35.0921 55C36.041 55 36.9742 54.7827 37.8043 54.3686L56.3956 44.7114C57.2187 44.265 57.9005 43.6353 58.3755 42.8829C58.8505 42.1304 59.1026 41.2805 59.1077 40.4149V29.2203L64.532 26.3428V37.0644H70V20.6667ZM53.6834 40.3754L35.0047 50.0721L16.5446 40.4149V32.2555L32.205 40.6514C33.0577 41.0904 34.0227 41.3213 35.0047 41.3213C35.9867 41.3213 36.9517 41.0904 37.8043 40.6514L53.6397 32.1372L53.6834 40.3754ZM35.0047 36.3943L5.47735 20.6273L35.0047 4.82094L64.532 20.5879L35.0047 36.3943Z" fill="#182825"/>
</svg>
